#N canvas 250 51 1097 800 10;
#X declare -path ./SRC/;
#X declare -stdpath /usr/local/lib/pd-externals/cyclone;
#X declare -path ./SRC/rj;
#X obj 322 122 OSC/unpackOSC;
#X obj 322 144 OSC/routeOSC /lamp;
#N canvas 551 520 450 300 output 0;
#X obj 32 157 *~ 1;
#X obj 32 60 inlet~;
#X obj 82 157 *~ 1;
#X obj 82 60 inlet~;
#X obj 132 157 *~ 1;
#X obj 132 60 inlet~;
#X obj 182 157 *~ 1;
#X obj 182 60 inlet~;
#X obj 232 60 inlet;
#X obj 232 127 clip 0 1;
#X msg 232 82 \$1 15;
#X obj 232 104 line;
#X obj 32 179 outSecurity 20 1;
#X obj 82 199 outSecurity 20 1;
#X obj 132 219 outSecurity 20 1;
#X obj 182 239 outSecurity 20 1;
#X obj 32 275 dac~ 3 4 5 6;
#X connect 0 0 12 0;
#X connect 1 0 0 0;
#X connect 2 0 13 0;
#X connect 3 0 2 0;
#X connect 4 0 14 0;
#X connect 5 0 4 0;
#X connect 6 0 15 0;
#X connect 7 0 6 0;
#X connect 8 0 10 0;
#X connect 9 0 6 1;
#X connect 9 0 4 1;
#X connect 9 0 2 1;
#X connect 9 0 0 1;
#X connect 10 0 11 0;
#X connect 11 0 9 0;
#X connect 12 0 16 0;
#X connect 13 0 16 1;
#X connect 14 0 16 2;
#X connect 15 0 16 3;
#X restore 22 749 pd output;
#X obj 322 100 iemnet/udpreceive 9001;
#X obj 82 723 r outVol;
#N canvas 675 179 450 300 init 0;
#X obj 22 20 loadbang;
#X obj 22 42 delay 200;
#X msg 22 114 \; pd dsp 1 \;;
#X obj 22 64 t b b;
#X obj 104 136 s outVol;
#X msg 104 114 10;
#X connect 0 0 1 0;
#X connect 1 0 3 0;
#X connect 3 0 5 0;
#X connect 3 1 2 0;
#X connect 5 0 4 0;
#X restore -54 81 pd init;
#X obj -54 17 declare -path ./SRC/;
#X obj 402 167 route_visual;
#N canvas 66 97 450 300 route 0;
#X obj 52 56 route 0 1 2 3 4 5 6 7;
#X obj 196 81 print error;
#X obj 52 78 lampRoute 0;
#X obj 52 33 inlet;
#X obj 70 98 lampRoute 1;
#X obj 88 118 lampRoute 2;
#X obj 107 138 lampRoute 3;
#X obj 125 158 lampRoute 4;
#X obj 143 178 lampRoute 5;
#X obj 161 198 lampRoute 6;
#X obj 179 218 lampRoute 7;
#X connect 0 0 2 0;
#X connect 0 1 4 0;
#X connect 0 2 5 0;
#X connect 0 3 6 0;
#X connect 0 4 7 0;
#X connect 0 5 8 0;
#X connect 0 6 9 0;
#X connect 0 7 10 0;
#X connect 0 8 1 0;
#X connect 3 0 0 0;
#X restore 322 167 pd route;
#X obj -54 60 declare -stdpath /usr/local/lib/pd-externals/cyclone
;
#X obj 138 187 TogEdge;
#X obj -54 37 declare -path ./SRC/rj;
#X obj 432 18 u_loadmeter;
#X obj 21 421 droneSynth;
#X obj 88 395 r B_0;
#X obj 43 355 r R_0;
#X obj 21 222 loadbang;
#X obj 21 244 delay 200;
#X obj 80 465 r G_1;
#X obj 36 485 + 7;
#X obj 65 375 r G_0;
#X obj 58 445 r R_1;
#X obj 103 486 r B_1;
#X obj 53 576 + 12;
#X obj 75 537 r R_2;
#X obj 97 556 r G_2;
#X obj 120 577 r B_2;
#X obj 89 627 r R_3;
#X obj 111 646 r G_3;
#X obj 134 667 r B_3;
#X obj 36 511 droneSynth;
#X obj 53 602 droneSynth;
#X obj 67 692 droneSynth;
#X obj 67 666 + 4;
#X msg 21 266 40;
#X connect 0 0 1 0;
#X connect 1 0 8 0;
#X connect 1 0 7 0;
#X connect 3 0 0 0;
#X connect 4 0 2 4;
#X connect 13 0 2 0;
#X connect 14 0 13 3;
#X connect 15 0 13 1;
#X connect 16 0 17 0;
#X connect 17 0 34 0;
#X connect 18 0 30 2;
#X connect 19 0 30 0;
#X connect 20 0 13 2;
#X connect 21 0 30 1;
#X connect 22 0 30 3;
#X connect 23 0 31 0;
#X connect 24 0 31 1;
#X connect 25 0 31 2;
#X connect 26 0 31 3;
#X connect 27 0 32 1;
#X connect 28 0 32 2;
#X connect 29 0 32 3;
#X connect 30 0 2 1;
#X connect 31 0 2 2;
#X connect 32 0 2 3;
#X connect 33 0 32 0;
#X connect 34 0 13 0;
#X connect 34 0 19 0;
#X connect 34 0 23 0;
#X connect 34 0 33 0;
