#N canvas 561 89 587 737 10;
#X declare -path ./SRC/;
#X declare -stdpath /usr/local/lib/pd-externals/cyclone;
#X declare -path ./SRC/rj;
#X declare -stdpath /usr/local/lib/pd-externals/iemnet;
#X obj 322 122 OSC/unpackOSC;
#X obj 322 144 OSC/routeOSC /lamp;
#N canvas 342 145 450 300 output 0;
#X obj 32 157 *~ 1;
#X obj 32 60 inlet~;
#X obj 82 157 *~ 1;
#X obj 82 60 inlet~;
#X obj 132 157 *~ 1;
#X obj 132 60 inlet~;
#X obj 182 157 *~ 1;
#X obj 182 60 inlet~;
#X obj 232 60 inlet;
#X obj 232 127 clip 0 1;
#X msg 232 82 \$1 15;
#X obj 232 104 line;
#X obj 32 275 dac~ 3 4 5 6;
#X obj 32 179 outSecurity 90 40 1;
#X obj 82 199 outSecurity 90 40 1;
#X obj 132 219 outSecurity 90 40 1;
#X obj 182 239 outSecurity 90 40 1;
#X connect 0 0 13 0;
#X connect 1 0 0 0;
#X connect 2 0 14 0;
#X connect 3 0 2 0;
#X connect 4 0 15 0;
#X connect 5 0 4 0;
#X connect 6 0 16 0;
#X connect 7 0 6 0;
#X connect 8 0 10 0;
#X connect 9 0 6 1;
#X connect 9 0 4 1;
#X connect 9 0 2 1;
#X connect 9 0 0 1;
#X connect 10 0 11 0;
#X connect 11 0 9 0;
#X connect 13 0 12 0;
#X connect 14 0 12 1;
#X connect 15 0 12 2;
#X connect 16 0 12 3;
#X restore 22 749 pd output;
#X obj 82 723 r outVol;
#N canvas 673 183 450 300 init 0;
#X obj 22 20 loadbang;
#X obj 22 42 delay 200;
#X msg 22 114 \; pd dsp 1 \;;
#X obj 22 64 t b b;
#X obj 104 136 s outVol;
#X msg 104 114 10;
#X connect 0 0 1 0;
#X connect 1 0 3 0;
#X connect 3 0 5 0;
#X connect 3 1 2 0;
#X connect 5 0 4 0;
#X restore -54 101 pd init;
#X obj -54 17 declare -path ./SRC/;
#X obj 402 167 route_visual;
#N canvas 66 97 450 300 route 0;
#X obj 52 56 route 0 1 2 3 4 5 6 7;
#X obj 196 81 print error;
#X obj 52 78 lampRoute 0;
#X obj 52 33 inlet;
#X obj 70 98 lampRoute 1;
#X obj 88 118 lampRoute 2;
#X obj 107 138 lampRoute 3;
#X obj 125 158 lampRoute 4;
#X obj 143 178 lampRoute 5;
#X obj 161 198 lampRoute 6;
#X obj 179 218 lampRoute 7;
#X connect 0 0 2 0;
#X connect 0 1 4 0;
#X connect 0 2 5 0;
#X connect 0 3 6 0;
#X connect 0 4 7 0;
#X connect 0 5 8 0;
#X connect 0 6 9 0;
#X connect 0 7 10 0;
#X connect 0 8 1 0;
#X connect 3 0 0 0;
#X restore 322 167 pd route;
#X obj -54 60 declare -stdpath /usr/local/lib/pd-externals/cyclone
;
#X obj 138 187 TogEdge;
#X obj -54 37 declare -path ./SRC/rj;
#X obj 432 18 u_loadmeter;
#X obj 23 222 loadbang;
#X obj 23 244 delay 200;
#N canvas 767 92 508 707 droneSound 0;
#X obj 49 38 inlet;
#X obj 49 151 droneSynth;
#X obj 64 245 + 7;
#X obj 81 376 + 12;
#X obj 95 516 + 4;
#X obj 64 271 droneSynth;
#X obj 81 402 droneSynth;
#X obj 95 542 droneSynth;
#X obj 49 613 outlet~;
#X obj 63 633 outlet~;
#X obj 82 653 outlet~;
#X obj 96 673 outlet~;
#X obj 90 85 APack 0;
#X obj 90 107 unpack f f f f;
#X obj 100 227 unpack f f f f;
#X obj 130 357 unpack f f f f;
#X obj 140 507 unpack f f f f;
#X obj 95 565 adsrDrone 1 500 20000 0.1 30000;
#X obj 140 485 APack 7;
#X obj 130 335 APack 5;
#X obj 100 205 APack 2;
#X obj 50 175 adsrDrone 1 500 20000 0 30000;
#X obj 64 295 adsrDrone 1 500 20000 0 30000;
#X obj 81 425 adsrDrone 1 500 20000 0 30000;
#X connect 0 0 1 0;
#X connect 0 0 2 0;
#X connect 0 0 3 0;
#X connect 0 0 4 0;
#X connect 1 0 21 0;
#X connect 2 0 5 0;
#X connect 3 0 6 0;
#X connect 4 0 7 0;
#X connect 5 0 22 0;
#X connect 6 0 23 0;
#X connect 7 0 17 0;
#X connect 12 0 13 0;
#X connect 13 0 21 1;
#X connect 13 1 1 1;
#X connect 13 2 1 2;
#X connect 13 3 1 3;
#X connect 14 0 22 1;
#X connect 14 1 5 1;
#X connect 14 2 5 2;
#X connect 14 3 5 3;
#X connect 15 0 23 1;
#X connect 15 1 6 1;
#X connect 15 2 6 2;
#X connect 15 3 6 3;
#X connect 16 0 17 1;
#X connect 16 1 7 1;
#X connect 16 2 7 2;
#X connect 16 3 7 3;
#X connect 17 0 11 0;
#X connect 18 0 16 0;
#X connect 19 0 15 0;
#X connect 20 0 14 0;
#X connect 21 0 8 0;
#X connect 22 0 9 0;
#X connect 23 0 10 0;
#X restore 23 590 pd droneSound;
#X obj 242 386 s A_0;
#X obj 239 346 tgl 15 0 empty empty empty 17 7 0 10 -262144 -1 -1 0
1;
#X msg 23 266 30;
#X obj 239 284 delay 3000;
#X obj 252 406 s A_1;
#X obj 262 426 s A_2;
#X obj 272 446 s A_3;
#X obj 282 466 s A_4;
#X obj 292 486 s A_5;
#X obj 302 506 s A_6;
#X obj 312 526 s A_7;
#X obj 44 360 r A_0;
#X obj 44 382 TogEdge;
#X obj 44 426 print;
#X msg 44 404 A_0;
#X obj 114 382 TogEdge;
#X obj 114 426 print;
#X obj 114 360 r A_7;
#X msg 114 404 A_7;
#X obj 44 472 TogEdge;
#X obj 44 516 print;
#X obj 114 472 TogEdge;
#X obj 114 516 print;
#X obj 44 450 r A_5;
#X msg 44 494 A_5;
#X msg 114 494 A_4;
#X obj 114 450 r A_4;
#X obj 322 33 loadbang;
#X msg 322 77 port 9001;
#X obj -54 80 declare -stdpath /usr/local/lib/pd-externals/iemnet;
#X obj 239 306 //metro 20000;
#X obj 239 262 //loadbang;
#X obj 322 100 iemnet/udpreceive;
#X obj 322 55 del 200;
#X connect 0 0 1 0;
#X connect 1 0 7 0;
#X connect 1 0 6 0;
#X connect 3 0 2 4;
#X connect 12 0 13 0;
#X connect 13 0 17 0;
#X connect 14 0 2 0;
#X connect 14 1 2 1;
#X connect 14 2 2 2;
#X connect 14 3 2 3;
#X connect 16 0 15 0;
#X connect 16 0 19 0;
#X connect 16 0 20 0;
#X connect 16 0 21 0;
#X connect 16 0 22 0;
#X connect 16 0 23 0;
#X connect 16 0 24 0;
#X connect 16 0 25 0;
#X connect 17 0 14 0;
#X connect 18 0 45 0;
#X connect 26 0 27 0;
#X connect 27 0 29 0;
#X connect 29 0 28 0;
#X connect 30 0 33 0;
#X connect 32 0 30 0;
#X connect 33 0 31 0;
#X connect 34 0 39 0;
#X connect 36 0 40 0;
#X connect 38 0 34 0;
#X connect 39 0 35 0;
#X connect 40 0 37 0;
#X connect 41 0 36 0;
#X connect 42 0 48 0;
#X connect 43 0 47 0;
#X connect 45 0 16 0;
#X connect 46 0 18 0;
#X connect 47 0 0 0;
#X connect 48 0 43 0;
