#N canvas 569 52 866 740 10;
#X declare -path ./SRC/;
#X declare -stdpath /usr/lib/pd/extra/cyclone;
#X declare -stdpath /usr/lib/pd/extra/iem_ambi;
#X obj 322 42 OSC/unpackOSC;
#X obj 322 64 OSC/routeOSC /lamp;
#N canvas 551 520 450 300 output 0;
#X obj 32 157 *~ 1;
#X obj 32 60 inlet~;
#X obj 82 157 *~ 1;
#X obj 82 60 inlet~;
#X obj 132 157 *~ 1;
#X obj 132 60 inlet~;
#X obj 182 157 *~ 1;
#X obj 182 60 inlet~;
#X obj 232 60 inlet;
#X obj 232 127 clip 0 1;
#X msg 232 82 \$1 15;
#X obj 232 104 line;
#X obj 32 179 outSecurity 20 1;
#X obj 82 199 outSecurity 20 1;
#X obj 132 219 outSecurity 20 1;
#X obj 182 239 outSecurity 20 1;
#X obj 32 275 dac~ 3 4 5 6;
#X connect 0 0 12 0;
#X connect 1 0 0 0;
#X connect 2 0 13 0;
#X connect 3 0 2 0;
#X connect 4 0 14 0;
#X connect 5 0 4 0;
#X connect 6 0 15 0;
#X connect 7 0 6 0;
#X connect 8 0 10 0;
#X connect 9 0 6 1;
#X connect 9 0 4 1;
#X connect 9 0 2 1;
#X connect 9 0 0 1;
#X connect 10 0 11 0;
#X connect 11 0 9 0;
#X connect 12 0 16 0;
#X connect 13 0 16 1;
#X connect 14 0 16 2;
#X connect 15 0 16 3;
#X restore 22 379 pd output;
#X obj 322 20 iemnet/udpreceive 9001;
#X obj 82 353 r outVol;
#N canvas 675 179 450 300 init 0;
#X obj 22 20 loadbang;
#X obj 22 42 delay 200;
#X msg 22 114 \; pd dsp 1 \;;
#X obj 22 64 t b b;
#X obj 104 136 s outVol;
#X msg 104 114 10;
#X connect 0 0 1 0;
#X connect 1 0 3 0;
#X connect 3 0 5 0;
#X connect 3 1 2 0;
#X connect 5 0 4 0;
#X restore 6 81 pd init;
#X obj 6 17 declare -path ./SRC/;
#X obj 402 87 route_visual;
#N canvas 66 97 450 300 route 0;
#X obj 52 56 route 0 1 2 3 4 5 6 7;
#X obj 196 81 print error;
#X obj 52 78 lampRoute 0;
#X obj 52 33 inlet;
#X obj 70 98 lampRoute 1;
#X obj 88 118 lampRoute 2;
#X obj 107 138 lampRoute 3;
#X obj 125 158 lampRoute 4;
#X obj 143 178 lampRoute 5;
#X obj 161 198 lampRoute 6;
#X obj 179 218 lampRoute 7;
#X connect 0 0 2 0;
#X connect 0 1 4 0;
#X connect 0 2 5 0;
#X connect 0 3 6 0;
#X connect 0 4 7 0;
#X connect 0 5 8 0;
#X connect 0 6 9 0;
#X connect 0 7 10 0;
#X connect 0 8 1 0;
#X connect 3 0 0 0;
#X restore 322 87 pd route;
#X obj 211 235 bng 15 250 50 0 empty empty empty 17 7 0 10 -262144
-1 -1;
#X obj 211 279 timer;
#X obj 211 255 t b b;
#X floatatom 211 301 5 0 0 0 - - -;
#X obj 211 211 r G_6;
#X obj 6 40 declare -stdpath /usr/lib/pd/extra/cyclone;
#X obj 6 60 declare -stdpath /usr/lib/pd/extra/iem_ambi;
#X obj 257 485 capture;
#X obj 197 419 TogEdge;
#X obj 261 235 bng 15 250 50 0 empty empty empty 17 7 0 10 -262144
-1 -1;
#X obj 261 279 timer;
#X obj 261 255 t b b;
#X floatatom 261 301 5 0 0 0 - - -;
#X obj 261 211 r G_7;
#X connect 0 0 1 0;
#X connect 1 0 8 0;
#X connect 1 0 7 0;
#X connect 3 0 0 0;
#X connect 4 0 2 4;
#X connect 9 0 11 0;
#X connect 10 0 12 0;
#X connect 11 0 10 0;
#X connect 11 1 10 1;
#X connect 13 0 9 0;
#X connect 18 0 20 0;
#X connect 19 0 21 0;
#X connect 20 0 19 0;
#X connect 20 1 19 1;
#X connect 22 0 18 0;
