#N canvas 18 553 450 300 10;
#X obj 53 215 outlet~;
#X obj 53 13 inlet~;
#X obj 53 185 *~;
#X obj 123 13 inlet;
#X obj 123 133 line;
#X obj 123 65 pack \$1 \$2;
#X obj 215 65 del \$3;
#X obj 215 87 pack \$4 \$5;
#X msg 123 35 bang;
#X floatatom 220 167 5 0 0 0 - - -;
#X connect 1 0 2 0;
#X connect 2 0 0 0;
#X connect 3 0 8 0;
#X connect 4 0 2 1;
#X connect 4 0 9 0;
#X connect 5 0 4 0;
#X connect 6 0 7 0;
#X connect 7 0 4 0;
#X connect 8 0 5 0;
#X connect 8 0 6 0;
