#N canvas 772 320 450 300 10;
#X obj -168 191 pack f f f f;
#X obj -168 103 TogEdge;
#X obj -168 81 r A_\$1;
#X obj -141 125 r R_\$1;
#X obj -114 147 r G_\$1;
#X obj -87 168 r B_\$1;
#X obj -168 214 outlet;
#X connect 0 0 6 0;
#X connect 1 0 0 0;
#X connect 2 0 1 0;
#X connect 3 0 0 1;
#X connect 4 0 0 2;
#X connect 5 0 0 3;
