#N canvas 257 302 603 477 10;
#X obj 188 142 mtof;
#X obj 248 95 moses 1;
#X obj 248 142 line~;
#X obj 248 118 pack 0 100;
#X obj 188 246 e_tremolo;
#X msg 335 205 freq \$1;
#X msg 485 205 dry \$1;
#X obj 188 284 outlet~;
#X obj 188 12 inlet;
#X obj 248 12 inlet;
#X obj 335 12 inlet;
#X obj 385 12 inlet;
#X text 186 -7 note;
#X text 247 -9 harmony;
#X text 351 -8 Tremolo;
#X obj 485 183 scaling 0 15 0 0.5;
#X obj 248 73 scaling 0 15 0 0.8;
#X obj 335 185 scaling 0 15 0.2 1;
#X obj 188 169 buzzDrone;
#X connect 0 0 18 0;
#X connect 1 0 3 0;
#X connect 2 0 18 1;
#X connect 3 0 2 0;
#X connect 4 0 7 0;
#X connect 5 0 4 1;
#X connect 6 0 4 1;
#X connect 8 0 0 0;
#X connect 9 0 16 0;
#X connect 10 0 17 0;
#X connect 11 0 15 0;
#X connect 15 0 6 0;
#X connect 16 0 1 0;
#X connect 17 0 5 0;
#X connect 18 0 4 0;
