#N canvas 627 268 450 300 10;
#X obj 79 42 inlet;
#X obj 79 86 <= 65;
#X obj 110 131 s R_\$1;
#X obj 142 153 s G_\$1;
#X obj 174 175 s B_\$1;
#X obj 79 108 s A_\$1;
#X obj 79 64 unpack f f f f;
#X connect 0 0 6 0;
#X connect 1 0 5 0;
#X connect 6 0 1 0;
#X connect 6 1 2 0;
#X connect 6 2 3 0;
#X connect 6 3 4 0;
