#N canvas 66 85 644 536 10;
#X obj 79 54 inlet~;
#X obj 79 164 outlet~;
#X obj 79 76 hip~ \$1;
#X obj 79 98 hip~ \$2;
#X obj 79 120 hip~ \$2;
#X obj 79 142 *~ \$3;
#X connect 0 0 2 0;
#X connect 2 0 3 0;
#X connect 3 0 4 0;
#X connect 4 0 5 0;
#X connect 5 0 1 0;
