#N canvas -3 51 450 300 10;
#X obj 79 54 inlet~;
#X obj 79 76 hip~ \$1;
#X obj 79 120 *~ \$2;
#X obj 79 142 outlet~;
#X obj 79 98 hip~ \$1;
#X connect 0 0 1 0;
#X connect 1 0 4 0;
#X connect 2 0 3 0;
#X connect 4 0 2 0;
