#N canvas 304 116 953 643 10;
#X obj 197 174 f \$1;
#X obj 367 171 f \$4;
#X obj 317 172 f \$3;
#X obj 247 172 f \$2;
#X obj 197 85 inlet;
#X obj 367 85 inlet;
#X obj 111 54 inlet;
#X obj 111 558 outlet;
#X text 174 54 scale [from_low \, from_hi] to [to_low \, to_hi];
#X obj 416 126 t b b b b;
#X obj 416 84 loadbang;
#X obj 111 525 +;
#X text 229 297 inh-inl;
#X text 354 286 outh-outl;
#X obj 111 488 *;
#X text 143 338 - inl;
#X text 143 526 + outl;
#X obj 247 237 t b a;
#X obj 367 225 t b a;
#X msg 425 105 bang;
#X obj 111 364 / 1;
#X obj 111 340 -;
#X obj 317 287 -;
#X obj 317 266 swap;
#X obj 197 271 swap;
#X obj 197 296 -;
#X obj 197 135 unpack 0 0 0 0;
#X obj 197 115 route list;
#X obj 247 85 //inlet;
#X obj 317 85 //inlet;
#X connect 0 0 21 1;
#X connect 0 0 24 0;
#X connect 1 0 18 0;
#X connect 2 0 11 1;
#X connect 2 0 23 0;
#X connect 3 0 17 0;
#X connect 4 0 27 0;
#X connect 5 0 1 0;
#X connect 6 0 21 0;
#X connect 9 0 0 0;
#X connect 9 1 3 0;
#X connect 9 2 2 0;
#X connect 9 3 1 0;
#X connect 10 0 9 0;
#X connect 11 0 7 0;
#X connect 14 0 11 0;
#X connect 17 0 24 0;
#X connect 17 1 24 1;
#X connect 18 0 23 0;
#X connect 18 1 23 1;
#X connect 19 0 9 0;
#X connect 20 0 14 0;
#X connect 21 0 20 0;
#X connect 22 0 14 1;
#X connect 23 0 22 0;
#X connect 23 1 22 1;
#X connect 24 0 25 0;
#X connect 24 1 25 1;
#X connect 25 0 20 1;
#X connect 26 0 0 0;
#X connect 26 1 3 0;
#X connect 26 2 2 0;
#X connect 26 3 1 0;
#X connect 27 0 26 0;
#X connect 27 1 0 0;
#X connect 28 0 3 0;
#X connect 29 0 2 0;
